<svg xmlns="http://www.w3.org/2000/svg" viewBox="0 0 1200 900" role="img" aria-labelledby="title desc">
  <title id="title">SaaS Dashboard Preview</title>
  <desc id="desc">Styled local placeholder of a SaaS dashboard with widgets, metrics and activity feed.</desc>
  <defs>
    <linearGradient id="bg" x1="0" y1="0" x2="1" y2="1">
      <stop offset="0%" stop-color="#0f172a"/>
      <stop offset="100%" stop-color="#14532d"/>
    </linearGradient>
  </defs>
  <rect width="1200" height="900" fill="url(#bg)"/>
  <circle cx="1020" cy="760" r="180" fill="#22c55e" opacity="0.18"/>
  <rect x="80" y="110" width="1040" height="680" rx="34" fill="#0b1220" opacity="0.84"/>
  <rect x="120" y="150" width="300" height="120" rx="16" fill="#111827"/>
  <rect x="450" y="150" width="300" height="120" rx="16" fill="#111827"/>
  <rect x="780" y="150" width="300" height="120" rx="16" fill="#111827"/>
  <rect x="120" y="300" width="620" height="450" rx="18" fill="#111827"/>
  <rect x="760" y="300" width="320" height="210" rx="18" fill="#111827"/>
  <rect x="760" y="540" width="320" height="210" rx="18" fill="#111827"/>
  <polyline points="170,650 250,580 330,610 410,500 490,560 570,470 650,520 710,430" fill="none" stroke="#22c55e" stroke-width="10" stroke-linecap="round" stroke-linejoin="round"/>
  <rect x="810" y="350" width="220" height="12" rx="6" fill="#86efac"/>
  <rect x="810" y="390" width="180" height="12" rx="6" fill="#86efac"/>
  <rect x="810" y="430" width="200" height="12" rx="6" fill="#86efac"/>
  <rect x="810" y="590" width="220" height="12" rx="6" fill="#86efac"/>
  <rect x="810" y="630" width="160" height="12" rx="6" fill="#86efac"/>
  <rect x="810" y="670" width="190" height="12" rx="6" fill="#86efac"/>
  <text x="600" y="850" text-anchor="middle" fill="#f0fdf4" font-family="Arial, sans-serif" font-size="54" font-weight="700">SaaS Dashboard</text>
</svg>
