<svg xmlns="http://www.w3.org/2000/svg" viewBox="0 0 1200 900" role="img" aria-label="E-learning Platform">
  <defs>
    <linearGradient id="bg9" x1="0" y1="0" x2="1" y2="1">
      <stop offset="0%" stop-color="#111827"/>
      <stop offset="100%" stop-color="#1e1b4b"/>
    </linearGradient>
    <linearGradient id="accent9" x1="0" y1="0" x2="1" y2="0">
      <stop offset="0%" stop-color="#f43f5e"/>
      <stop offset="100%" stop-color="#22d3ee"/>
    </linearGradient>
  </defs>
  <rect width="1200" height="900" fill="url(#bg9)"/>
  <rect x="120" y="120" width="960" height="660" rx="34" fill="#0f172a" stroke="#334155" stroke-width="4"/>
  <rect x="170" y="180" width="620" height="370" rx="22" fill="#1f2937"/>
  <rect x="830" y="180" width="200" height="370" rx="22" fill="#111827" stroke="#475569" stroke-width="3"/>
  <rect x="170" y="580" width="860" height="150" rx="20" fill="#111827" stroke="#334155" stroke-width="3"/>
  <circle cx="900" cy="250" r="46" fill="#f43f5e" opacity="0.9"/>
  <rect x="860" y="325" width="120" height="16" rx="8" fill="#64748b"/>
  <rect x="860" y="357" width="90" height="14" rx="7" fill="#475569"/>
  <rect x="220" y="250" width="330" height="26" rx="13" fill="url(#accent9)"/>
  <rect x="220" y="300" width="280" height="18" rx="9" fill="#64748b"/>
  <rect x="220" y="338" width="220" height="18" rx="9" fill="#475569"/>
  <polygon points="590,330 680,380 590,430" fill="#22d3ee" opacity="0.92"/>
  <text x="150" y="95" fill="#f8fafc" font-family="Arial, sans-serif" font-size="52" font-weight="700">E-LEARNING PLATFORM</text>
</svg>
