<svg xmlns="http://www.w3.org/2000/svg" viewBox="0 0 1200 900" role="img" aria-label="Design System">
  <defs>
    <linearGradient id="bg8" x1="0" y1="0" x2="1" y2="1">
      <stop offset="0%" stop-color="#1f1d36"/>
      <stop offset="100%" stop-color="#0f172a"/>
    </linearGradient>
  </defs>
  <rect width="1200" height="900" fill="url(#bg8)"/>
  <rect x="90" y="120" width="1020" height="660" rx="36" fill="#111827" stroke="#334155" stroke-width="4"/>
  <rect x="140" y="190" width="300" height="180" rx="26" fill="#f43f5e" opacity="0.95"/>
  <rect x="470" y="190" width="260" height="180" rx="26" fill="#22d3ee" opacity="0.88"/>
  <rect x="760" y="190" width="300" height="180" rx="26" fill="#a78bfa" opacity="0.9"/>
  <rect x="140" y="410" width="440" height="300" rx="26" fill="#0f172a" stroke="#475569" stroke-width="3"/>
  <rect x="620" y="410" width="440" height="300" rx="26" fill="#0f172a" stroke="#475569" stroke-width="3"/>
  <circle cx="220" cy="500" r="40" fill="#f43f5e"/>
  <rect x="280" y="470" width="240" height="20" rx="10" fill="#64748b"/>
  <rect x="280" y="515" width="190" height="18" rx="9" fill="#475569"/>
  <circle cx="700" cy="500" r="40" fill="#22d3ee"/>
  <rect x="760" y="470" width="240" height="20" rx="10" fill="#64748b"/>
  <rect x="760" y="515" width="190" height="18" rx="9" fill="#475569"/>
  <text x="120" y="95" fill="#f8fafc" font-family="Arial, sans-serif" font-size="52" font-weight="700">DESIGN SYSTEM</text>
</svg>
