<svg xmlns="http://www.w3.org/2000/svg" viewBox="0 0 1200 900" role="img" aria-label="AI Analytics">
  <defs>
    <linearGradient id="bg5" x1="0" y1="0" x2="1" y2="1">
      <stop offset="0%" stop-color="#1f2937"/>
      <stop offset="100%" stop-color="#0f172a"/>
    </linearGradient>
    <linearGradient id="line5" x1="0" y1="0" x2="1" y2="0">
      <stop offset="0%" stop-color="#f43f5e"/>
      <stop offset="100%" stop-color="#fb7185"/>
    </linearGradient>
  </defs>
  <rect width="1200" height="900" fill="url(#bg5)"/>
  <g opacity="0.15" stroke="#f8fafc">
    <path d="M0 100h1200M0 250h1200M0 400h1200M0 550h1200M0 700h1200"/>
    <path d="M120 0v900M300 0v900M480 0v900M660 0v900M840 0v900M1020 0v900"/>
  </g>
  <path d="M110 650 260 520 410 560 560 420 710 460 860 300 1010 360" fill="none" stroke="url(#line5)" stroke-width="18" stroke-linecap="round" stroke-linejoin="round"/>
  <circle cx="560" cy="420" r="22" fill="#f43f5e"/>
  <rect x="80" y="90" width="400" height="110" rx="20" fill="#111827" opacity="0.65"/>
  <text x="120" y="160" fill="#f8fafc" font-family="Arial, sans-serif" font-size="54" font-weight="700">AI ANALYTICS</text>
</svg>
