<svg xmlns="http://www.w3.org/2000/svg" viewBox="0 0 1200 900" role="img" aria-labelledby="title desc">
  <title id="title">Fintech App Preview</title>
  <desc id="desc">Styled local placeholder of a fintech mobile app with phone mockups and payment cards.</desc>
  <defs>
    <linearGradient id="bg" x1="0" y1="0" x2="1" y2="1">
      <stop offset="0%" stop-color="#111827"/>
      <stop offset="100%" stop-color="#7c2d12"/>
    </linearGradient>
  </defs>
  <rect width="1200" height="900" fill="url(#bg)"/>
  <circle cx="200" cy="760" r="170" fill="#fb923c" opacity="0.2"/>
  <rect x="80" y="110" width="1040" height="680" rx="34" fill="#0b1220" opacity="0.84"/>
  <rect x="260" y="170" width="240" height="520" rx="36" fill="#111827" stroke="#334155" stroke-width="4"/>
  <rect x="540" y="170" width="240" height="520" rx="36" fill="#111827" stroke="#334155" stroke-width="4"/>
  <rect x="820" y="170" width="220" height="180" rx="18" fill="#111827"/>
  <rect x="820" y="380" width="220" height="140" rx="18" fill="#111827"/>
  <rect x="820" y="550" width="220" height="140" rx="18" fill="#111827"/>
  <rect x="290" y="220" width="180" height="90" rx="14" fill="#fb923c" opacity="0.9"/>
  <rect x="570" y="220" width="180" height="90" rx="14" fill="#22d3ee" opacity="0.9"/>
  <rect x="290" y="340" width="140" height="12" rx="6" fill="#cbd5e1"/>
  <rect x="290" y="380" width="180" height="12" rx="6" fill="#cbd5e1"/>
  <rect x="290" y="420" width="160" height="12" rx="6" fill="#cbd5e1"/>
  <rect x="570" y="340" width="150" height="12" rx="6" fill="#cbd5e1"/>
  <rect x="570" y="380" width="170" height="12" rx="6" fill="#cbd5e1"/>
  <rect x="570" y="420" width="130" height="12" rx="6" fill="#cbd5e1"/>
  <text x="600" y="850" text-anchor="middle" fill="#fff7ed" font-family="Arial, sans-serif" font-size="54" font-weight="700">Fintech App</text>
</svg>
