<svg xmlns="http://www.w3.org/2000/svg" viewBox="0 0 1200 900" role="img" aria-labelledby="title desc">
  <title id="title">CRM System Preview</title>
  <desc id="desc">Styled local placeholder of CRM analytics dashboard with charts and customer panels.</desc>
  <defs>
    <linearGradient id="bg" x1="0" y1="0" x2="1" y2="1">
      <stop offset="0%" stop-color="#0b1220"/>
      <stop offset="100%" stop-color="#1d4ed8"/>
    </linearGradient>
  </defs>
  <rect width="1200" height="900" fill="url(#bg)"/>
  <circle cx="200" cy="120" r="160" fill="#22d3ee" opacity="0.2"/>
  <rect x="80" y="110" width="1040" height="680" rx="34" fill="#0f172a" opacity="0.85"/>
  <rect x="120" y="150" width="310" height="250" rx="18" fill="#111827"/>
  <rect x="450" y="150" width="310" height="250" rx="18" fill="#111827"/>
  <rect x="780" y="150" width="300" height="250" rx="18" fill="#111827"/>
  <rect x="120" y="430" width="640" height="320" rx="18" fill="#111827"/>
  <rect x="780" y="430" width="300" height="320" rx="18" fill="#111827"/>
  <polyline points="160,690 240,620 320,650 400,560 480,610 560,520 640,580 720,500" fill="none" stroke="#22d3ee" stroke-width="10" stroke-linecap="round" stroke-linejoin="round"/>
  <circle cx="320" cy="560" r="44" fill="#22d3ee" opacity="0.28"/>
  <circle cx="430" cy="560" r="44" fill="#22d3ee" opacity="0.28"/>
  <circle cx="540" cy="560" r="44" fill="#22d3ee" opacity="0.28"/>
  <rect x="830" y="490" width="200" height="12" rx="6" fill="#94a3b8"/>
  <rect x="830" y="540" width="170" height="12" rx="6" fill="#94a3b8"/>
  <rect x="830" y="590" width="190" height="12" rx="6" fill="#94a3b8"/>
  <text x="600" y="850" text-anchor="middle" fill="#f8fafc" font-family="Arial, sans-serif" font-size="54" font-weight="700">CRM System</text>
</svg>
